<?xml version="1.0" encoding="UTF-8" standalone="no"?>
<!-- Created with Inkscape (http://www.inkscape.org/) -->

<svg
   xmlns:dc="http://purl.org/dc/elements/1.1/"
   xmlns:cc="http://creativecommons.org/ns#"
   xmlns:rdf="http://www.w3.org/1999/02/22-rdf-syntax-ns#"
   xmlns:svg="http://www.w3.org/2000/svg"
   xmlns="http://www.w3.org/2000/svg"
   xmlns:sodipodi="http://sodipodi.sourceforge.net/DTD/sodipodi-0.dtd"
   xmlns:inkscape="http://www.inkscape.org/namespaces/inkscape"
   width="210mm"
   height="297mm"
   viewBox="0 0 210 297"
   version="1.1"
   id="svg8"
   inkscape:version="0.92.4 (5da689c313, 2019-01-14)"
   sodipodi:docname="tentative_icon.svg">
  <defs
     id="defs2" />
  <sodipodi:namedview
     id="base"
     pagecolor="#ffffff"
     bordercolor="#666666"
     borderopacity="1.0"
     inkscape:pageopacity="0.0"
     inkscape:pageshadow="2"
     inkscape:zoom="0.35"
     inkscape:cx="405.71429"
     inkscape:cy="560"
     inkscape:document-units="mm"
     inkscape:current-layer="layer1"
     showgrid="false"
     inkscape:window-width="1920"
     inkscape:window-height="1016"
     inkscape:window-x="0"
     inkscape:window-y="27"
     inkscape:window-maximized="1" />
  <metadata
     id="metadata5">
    <rdf:RDF>
      <cc:Work
         rdf:about="">
        <dc:format>image/svg+xml</dc:format>
        <dc:type
           rdf:resource="http://purl.org/dc/dcmitype/StillImage" />
        <dc:title></dc:title>
      </cc:Work>
    </rdf:RDF>
  </metadata>
  <g
     inkscape:label="Layer 1"
     inkscape:groupmode="layer"
     id="layer1">
    <path
       style="fill:#ff8080;stroke-width:0.26458332"
       id="path3853"
       d="m 33.229005,64.220142 c 6.002808,-4.210719 12.318293,-8.183568 19.106435,-10.997411 3.730006,-1.503781 7.564273,-0.926836 11.387225,-0.184351 4.590036,1.030287 9.057772,2.51965 13.49381,4.0685 3.31084,1.145739 6.449994,2.655033 9.313397,4.670962 2.227667,1.477833 3.762428,3.486806 5.136279,5.734976 1.521603,2.610662 2.850859,5.3204 4.180481,8.031422 1.089099,2.522429 2.080987,5.095129 2.817391,7.743534 0.713656,2.673535 0.777992,5.434213 0.690761,8.18098 -0.218792,3.907255 -1.315008,7.64423 -2.842326,11.221376 -2.223349,4.30387 -5.323509,8.05496 -8.780087,11.41638 -2.17474,1.92862 -4.546144,3.64132 -7.067838,5.08906 -11.351545,6.51708 -7.315689,4.75027 -12.991999,7.11703 -3.526033,1.58331 -6.498585,2.11025 -10.340523,1.86601 -4.425243,-0.44716 -8.086418,-2.87764 -11.576737,-5.44013 -3.46147,-2.48094 -5.994861,-5.90685 -8.246086,-9.46556 -1.921857,-3.17535 -3.416168,-6.60944 -4.662252,-10.10102 -1.067105,-3.236321 -1.303796,-6.640643 -1.473341,-10.01879 -0.188965,-3.066712 -0.05688,-6.117871 0.337699,-9.160904 0.438282,-2.817567 0.692184,-5.658932 1.359241,-8.43538 0.547817,-1.949802 1.510736,-3.689691 2.710857,-5.303993 1.301644,-1.628577 2.785375,-3.098708 4.253831,-4.574519 3.867134,-3.498303 8.390223,-7.134506 13.650267,-7.793757 1.867537,-0.228262 3.70945,0.07671 5.533509,0.461671 2.502299,0.473469 5.031171,0.872781 7.483287,1.57153 0.83172,0.240538 1.664242,0.471165 2.507117,0.668501 0,0 -9.253961,6.374689 -9.253961,6.374689 v 0 c -0.82687,-0.230384 -1.648404,-0.478208 -2.476137,-0.70562 -2.447809,-0.617144 -4.926756,-1.091084 -7.415922,-1.507633 -1.773314,-0.275053 -3.568035,-0.481346 -5.340569,-0.07009 -3.609578,1.062733 -8.777568,4.897766 7.772889,-4.794104 0.216684,-0.126889 -0.451183,0.223292 -0.66126,0.360838 -0.322609,0.211225 -1.188767,0.930781 -1.457867,1.14988 -1.459444,1.45489 -2.930975,2.901434 -4.294145,4.448304 -1.240258,1.484876 -2.272766,3.059811 -2.915838,4.901623 -0.822013,2.716567 -1.043964,5.543423 -1.481122,8.337815 -0.440446,2.978084 -0.572759,5.969926 -0.421367,8.978773 0.113231,3.278108 0.309922,6.585211 1.300239,9.736357 1.198822,3.422739 2.622476,6.798729 4.505579,9.904939 2.173512,3.44399 4.637283,6.73723 7.985718,9.13298 3.400094,2.43361 6.973964,4.63843 11.271972,4.85896 3.589004,0.0356 6.777971,-0.72313 10.030409,-2.25901 4.441283,-2.05833 2.149407,-1.06285 -6.019167,3.74108 -0.573119,0.33705 1.156128,-0.65735 1.724541,-1.00228 1.921769,-1.16621 3.778893,-2.44059 5.498324,-3.89208 3.512437,-3.18086 6.536296,-6.84275 8.873652,-10.97965 1.600364,-3.42038 2.752201,-7.03788 3.011953,-10.828316 0.09909,-2.630155 0.0013,-5.280904 -0.593828,-7.855966 -0.68199,-2.592533 -1.645762,-5.10259 -2.696258,-7.566793 -1.311759,-2.679207 -2.583931,-5.378079 -4.1232,-7.938256 C 80.717693,71.009271 79.213791,69.162 77.120466,67.773097 74.336629,65.84013 71.286708,64.397733 68.084911,63.284911 63.686435,61.758324 59.253228,60.286219 54.68126,59.36499 c -3.768879,-0.620887 -7.472429,-0.911571 -11.045249,0.742048 -3.497775,1.603955 -10.145876,5.611998 4.365324,-2.820032 0.573823,-0.333433 -1.152263,0.658995 -1.722512,0.998508 -0.511701,0.304657 -1.023641,0.609502 -1.523092,0.933852 -0.383151,0.248822 -0.749033,0.523277 -1.123551,0.784916 0,0 -10.403175,4.21586 -10.403175,4.21586 z"
       inkscape:connector-curvature="0" />
    <path
       style="fill:#ff8080;stroke-width:0.26458332"
       id="path3855"
       d="m 75.628137,82.256047 c -2.11804,1.754359 -4.160563,3.591359 -5.961618,5.672733 -1.180352,1.200591 -1.984833,2.583767 -2.637304,4.115895 -0.460327,1.185386 -0.731308,2.41541 -0.586988,3.682092 0.163832,1.456177 0.809728,2.784266 1.293026,4.149913 0.622454,1.48659 1.332775,2.96139 2.196534,4.3246 0.593246,0.96392 1.297112,2.37821 2.583836,2.417 0.586846,0.021 0.887929,-0.29479 1.294847,-0.66299 -3.052815,1.74842 -6.080162,3.54206 -9.158441,5.24524 -0.3919,0.21684 0.639861,-0.62888 0.927571,-0.97214 0.991593,-1.47896 2.017372,-2.93336 3.000767,-4.41796 1.158536,-1.8499 2.494399,-3.57677 3.982712,-5.17111 1.304449,-1.116486 2.437191,-2.361226 3.270991,-3.864498 0.500753,-1.152922 0.893474,-2.347627 1.187508,-3.568597 0,0 10.114439,-4.888947 10.114439,-4.888947 v 0 c -0.245036,1.307936 -0.649227,2.551903 -1.077061,3.808942 -0.681966,1.657228 -1.723924,3.126673 -3.146369,4.236143 -1.59185,1.434787 -2.898537,3.156799 -4.078547,4.940467 -0.939366,1.51103 -1.979898,2.94597 -2.949438,4.43538 -2.418913,4.24299 -7.813248,8.07221 -12.678708,7.22454 -1.34905,-0.68348 -2.288696,-1.77528 -2.982397,-3.11358 -0.886394,-1.44773 -1.648658,-2.98368 -2.319472,-4.54144 -0.490265,-1.43674 -1.197605,-2.8138 -1.41287,-4.3309 -0.244671,-1.446876 -0.132472,-2.803029 0.343318,-4.207509 0.588978,-1.642062 1.259856,-3.234494 2.550668,-4.464148 1.705136,-2.179431 3.746865,-4.031715 5.83982,-5.833266 0,0 10.403176,-4.21586 10.403176,-4.21586 z"
       inkscape:connector-curvature="0" />
    <path
       style="fill:#ff8080;stroke-width:0.26458332"
       id="path3857"
       d="m 132.55906,55.362286 c 2.02706,1.175036 4.17759,2.168144 6.03748,3.612529 1.29366,1.004654 1.72406,1.522068 2.86835,2.688338 2.81536,3.029032 4.77248,6.674109 6.67133,10.311268 1.76125,3.232213 3.19126,6.611437 4.3496,10.101352 0.86802,2.716287 1.53441,5.468644 1.90425,8.294955 0.46095,2.953768 -0.39437,5.781733 -1.31549,8.55495 -0.98775,2.820652 -2.41523,5.433242 -4.14449,7.859922 -1.31507,1.66123 -2.70719,3.27151 -4.16977,4.80541 -4.02548,3.47643 -8.77237,6.45726 -13.738,8.27224 -1.50143,0.45944 -3.07709,0.50379 -4.63397,0.53652 -1.67935,-0.1979 -3.24325,-0.77725 -4.70265,-1.61347 -1.71306,-1.19641 -3.31346,-2.55472 -4.92253,-3.88808 -1.41032,-1.35021 -2.69158,-2.84115 -3.91851,-4.35968 -1.48782,-1.78037 -2.7386,-3.73055 -3.94601,-5.7059 -1.15418,-1.87357 -2.08969,-3.8582 -2.97245,-5.868648 -0.72275,-1.537999 -1.05291,-3.186488 -1.22613,-4.864052 -0.032,-1.661245 -0.1953,-3.300365 -0.4024,-4.947357 -0.44681,-2.20336 -0.10943,-4.318153 0.4281,-6.463265 0.71927,-2.703597 2.0156,-5.168982 3.44284,-7.554087 1.22331,-1.841077 2.49045,-3.661839 3.90196,-5.364805 0.88712,-1.278226 1.79147,-2.524633 2.81299,-3.699828 3.34245,-3.664929 6.33227,-4.270991 11.81745,-7.35567 0,0 -8.85692,6.968302 -8.85692,6.968302 v 0 c 3.07044,-1.77687 6.1529,-3.533124 9.21132,-5.330614 0.14155,-0.08319 -0.31421,0.103151 -0.45644,0.185201 -0.51784,0.298749 -0.96353,0.764 -1.33054,1.224835 -1.16212,1.025676 -2.09716,2.271522 -2.87658,3.611158 -1.38541,1.717045 -2.78513,3.417922 -4.01987,5.255406 -1.45491,2.277393 -2.80112,4.634304 -3.56126,7.246805 -0.56348,2.005533 -1.0263,3.975494 -0.59558,6.061858 0.21965,1.656448 0.49189,3.293861 0.44902,4.971899 0.11916,1.568148 0.36602,3.115892 1.03238,4.557805 0.85572,1.96764 1.71661,3.934283 2.86963,5.753634 1.1737,1.936683 2.41027,3.832333 3.89318,5.551923 1.21087,1.43966 2.3891,2.92104 3.78155,4.19053 1.56522,1.28065 3.11382,2.61252 4.83502,3.67835 1.37052,0.66919 2.83123,1.16408 4.37694,1.11918 1.49515,-0.083 3.00037,-0.2242 4.37762,-0.86403 3.72671,-1.88477 1.32104,-0.68512 -8.18411,4.80724 -0.2394,0.13834 0.4677,-0.29523 0.70591,-0.43561 1.1397,-0.67165 0.29051,-0.0926 1.37824,-0.89117 0.22288,-0.16363 0.4461,-0.32679 0.66915,-0.49018 1.51928,-1.47169 2.87781,-3.09479 4.27767,-4.68 1.80272,-2.31155 3.29916,-4.81442 4.33774,-7.56778 0.91878,-2.59811 1.8454,-5.283921 1.48733,-8.079934 -0.30772,-2.77164 -0.93955,-5.46459 -1.74426,-8.134596 -1.10482,-3.447521 -2.51953,-6.767124 -4.23635,-9.957274 -1.83001,-3.548221 -3.71592,-7.11083 -6.50224,-10.021038 -2.53683,-2.521637 -5.44616,-4.484986 -8.77012,-5.847622 0,0 9.30962,-6.23692 9.30962,-6.23692 z"
       inkscape:connector-curvature="0" />
    <path
       style="fill:#ff8080;stroke-width:0.26458332"
       id="path3863"
       d="m 138.28808,76.475266 c 0.9721,2.320737 2.03102,4.606145 2.80538,7.00286 0.52496,1.69214 0.67448,3.453907 0.74093,5.213752 0.0845,1.594884 -0.25024,3.167753 -0.68495,4.692197 -0.50737,1.594498 -1.23728,3.103936 -1.96513,4.606364 -1.58811,4.392111 -7.17644,8.165121 -11.77679,6.833511 -1.05981,-0.53087 -2.16609,-0.88274 -3.13094,-1.59217 -0.92656,-0.6975 -1.6828,-1.57826 -2.56483,-2.32355 -1.35916,-1.015863 -2.47539,-2.271017 -3.57974,-3.546507 -1.11776,-1.159761 -2.27533,-2.278846 -3.36477,-3.4657 -1.01009,-1.082138 -1.70546,-2.281314 -2.2838,-3.631391 -0.56598,-1.376428 -0.96461,-2.798609 -0.76849,-4.285585 0.39312,-1.574634 1.64858,-2.493672 2.82028,-3.484214 3.13995,-2.962941 9.32258,-9.403259 11.69869,-4.612764 0,0 -9.81191,5.550064 -9.81191,5.550064 v 0 c -0.14711,-0.415483 -0.43127,0.07803 -0.34863,0.0308 9.85925,-5.634172 12.59353,-6.794574 8.88776,-5.195131 -1.05758,0.924621 -2.34414,1.638835 -3.09799,2.852502 -0.52149,1.207704 -0.0172,2.457871 0.42153,3.633687 0.5389,1.225579 1.13556,2.333779 2.08439,3.308726 1.10563,1.183637 2.25645,2.322907 3.36415,3.504814 1.08579,1.234905 2.20837,2.414913 3.53366,3.400657 0.8183,0.7448 1.5947,1.538931 2.49323,2.191092 0.9107,0.531198 1.90329,0.942371 2.91626,1.227703 3.72043,0.498026 9.44075,-5.241438 -8.61014,5.512657 -0.10559,0.0629 0.24585,-0.0704 0.3341,-0.15596 0.19687,-0.1908 0.49142,-0.92848 0.56875,-1.10069 0.67438,-1.48467 1.45077,-2.92039 2.0314,-4.447504 0.42888,-1.420614 0.88094,-2.874952 0.83999,-4.374912 -0.0333,-1.668827 -0.11159,-3.345937 -0.56077,-4.964469 -0.69866,-2.355903 -1.70019,-4.60674 -2.74915,-6.825052 0,0 9.75753,-5.555787 9.75753,-5.555787 z"
       inkscape:connector-curvature="0" />
    <path
       style="fill:#ff8080;stroke-width:0.26458332"
       id="path3865"
       d="m 157.29677,93.653953 c 1.80684,2.325603 3.99662,4.301461 6.14212,6.303843 1.77562,1.507074 3.27115,3.283824 4.79703,5.031714 1.46569,1.60567 2.94309,3.19104 4.34198,4.8556 1.92489,2.38232 3.50441,5.02019 5.04536,7.66018 1.24413,2.22022 2.68568,4.31319 3.85531,6.57368 0.88183,1.92831 1.68272,3.90426 2.22336,5.9572 0.37514,1.56552 0.43769,3.1764 0.472,4.77838 0.0681,0.99442 -0.10002,1.97486 -0.2718,2.94917 0,0 -10.143,4.88659 -10.143,4.88659 v 0 c 0.24816,-0.88285 0.46431,-1.79609 0.412,-2.71893 -0.0159,-1.52442 -0.0356,-3.05891 -0.33843,-4.55926 -0.46457,-1.98674 -1.22765,-3.88926 -2.0491,-5.75258 -1.17123,-2.24074 -2.59706,-4.32586 -3.81036,-6.54473 -1.47401,-2.60021 -3.03571,-5.1739 -4.95962,-7.47041 -1.42637,-1.63759 -2.91808,-3.21173 -4.3665,-4.82959 -1.49476,-1.72172 -2.96095,-3.46947 -4.69135,-4.96637 -2.16091,-2.05231 -4.33128,-4.09841 -6.27459,-6.363113 0,0 9.61559,-5.791374 9.61559,-5.791374 z"
       inkscape:connector-curvature="0" />
    <path
       style="fill:#ff8080;stroke-width:0.26458332"
       id="path3867"
       d="m 117.77931,62.927039 c -4.20584,-0.06964 -8.41262,-0.05526 -12.61891,-0.06298 -5.981431,-0.05874 -11.965245,0.06419 -17.944249,-0.127556 -4.912723,-0.227322 -9.825694,-0.434649 -14.742628,-0.541255 -4.301792,0.206227 -8.601787,0.426069 -12.907174,0.548227 -4.138938,0.07651 -8.269526,0.04756 -12.395412,0.402376 -2.555144,0.340135 -5.069665,0.837483 -7.509298,1.671788 -2.473835,1.379995 -5.106347,2.388378 -7.737263,3.430214 -2.990244,1.195028 -6.042642,2.280621 -9.14173,3.163113 -0.811205,0.185639 -1.139812,0.212201 -1.872373,0.548415 -0.243737,0.111863 -0.936177,0.523748 -0.702303,0.392507 13.200269,-7.407503 10.410827,-7.257754 7.830222,-3.555305 -1.125128,1.635726 -2.230742,3.281209 -3.246144,4.987674 -1.221192,1.709658 -2.089374,3.527814 -2.605884,5.559391 -0.429194,2.513247 -0.694738,5.051782 -1.099639,7.569676 -0.479888,2.489427 -0.75233,5.005498 -0.889215,7.534764 -0.103805,2.090579 -0.08738,4.184203 -0.09506,6.276582 0.0023,1.7452 -0.06192,3.48512 0.191864,5.2153 0.421148,1.51558 0.828565,3.0352 1.291404,4.53898 0.582195,1.62663 1.623753,3.03804 2.528644,4.49697 0.946096,1.72066 1.905728,3.43028 2.881173,5.13402 0.932865,1.54156 1.765794,3.14014 2.623277,4.72428 0.73656,1.67035 1.660523,3.2113 2.665868,4.72634 1.023495,1.36735 1.946949,2.79699 2.836442,4.2537 0.943178,1.54115 1.926706,3.03939 3.067161,4.44256 1.426244,1.58756 2.853578,3.17766 4.323863,4.724 1.766726,1.94555 3.686804,3.6092 5.969815,4.90721 3.679081,1.78205 7.691223,2.77703 11.59194,3.96257 4.549646,1.38381 9.071653,2.85583 13.58958,4.33923 4.375456,1.41994 8.741275,2.8621 13.023913,4.54379 3.409429,1.3821 6.745655,2.92754 10.038945,4.56461 2.662695,1.38085 5.211941,2.95828 7.455601,4.95286 2.61345,2.45503 4.94421,5.17899 7.31273,7.86396 1.92846,2.33915 3.87666,4.66018 5.7536,7.04074 1.53702,1.97396 2.92155,4.02838 3.99487,6.28823 1.26382,2.62102 2.27541,5.34385 3.01137,8.15713 0.68199,2.96037 0.74637,6.00647 1.08905,9.01419 0.35998,2.39878 0.46959,4.77174 -0.12953,7.13104 -0.5724,2.21528 -1.80967,4.14449 -2.93544,6.10685 -1.42961,2.54959 -2.89907,5.07691 -4.39685,7.58702 -1.53972,2.64734 -3.32132,5.13576 -5.17607,7.56835 -2.40011,3.13515 -5.19684,5.91639 -8.22351,8.43965 -2.73826,1.97672 -5.422604,4.02965 -8.172336,5.99054 -5.894128,4.09712 -12.329507,7.20854 -18.746322,10.3371 -3.550734,1.61919 -7.189276,3.04263 -10.8108,4.49569 -3.549949,1.4977 -7.145878,2.89198 -10.618484,4.56465 -2.164299,1.09291 -4.455175,1.88714 -6.683922,2.8217 -1.538946,0.61158 -3.068892,1.23677 -4.628375,1.79771 -1.64955,0.38108 -3.247559,0.91107 -4.860983,1.42116 -1.572527,0.77213 -3.253404,1.17641 -4.981755,1.38506 -1.534636,0.14272 -3.077781,0.13373 -4.617439,0.13335 -1.511245,-0.004 -3.022487,-0.0101 -4.533737,-0.013 -1.4966,-0.069 -3.020492,0.15518 -4.492776,-0.15163 -1.381892,-0.26083 -2.727345,-0.56915 -4.024042,-1.12308 -0.814856,-0.36817 -0.445106,-0.16925 -1.118348,-0.57949 0,0 9.450537,-6.14362 9.450537,-6.14362 v 0 c 0.57735,0.30239 0.249152,0.14454 0.993136,0.45542 1.265994,0.4241 2.565706,0.70721 3.886467,0.90353 1.463627,0.0766 2.931276,0.0109 4.39634,0.0367 1.509811,0.004 3.019632,0.0116 4.529447,0.007 1.507368,-0.0132 3.021933,-0.0266 4.514191,-0.26538 1.680282,-0.31978 3.265861,-0.90482 4.861002,-1.51273 1.606243,-0.51816 3.246048,-0.9231 4.8401,-1.47587 1.534649,-0.60045 3.072865,-1.1893 4.601646,-1.80496 2.222783,-0.83823 4.396486,-1.79888 6.550295,-2.80042 3.50193,-1.59513 7.07468,-3.02844 10.630815,-4.49727 3.620088,-1.4694 7.270284,-2.87913 10.79233,-4.5752 1.598944,-0.76587 3.200665,-1.5218 4.770525,-2.34647 0.511387,-0.26864 2.024105,-1.11362 1.527098,-0.81923 -2.181595,1.29224 -11.799943,6.86097 -6.575628,3.82416 2.796124,-1.91209 5.42145,-4.05868 8.244284,-5.93497 3.06896,-2.4079 5.891614,-5.10864 8.297664,-8.18985 1.86158,-2.3855 3.63917,-4.83734 5.19847,-7.43327 1.49027,-2.50216 2.98418,-5.00345 4.38734,-7.55575 1.07033,-1.91369 2.33624,-3.75746 3.00802,-5.85879 0.75365,-2.21127 0.73268,-4.45498 0.3754,-6.75706 -0.32454,-2.96303 -0.40985,-5.95546 -1.00648,-8.88207 -0.68944,-2.75136 -1.68496,-5.40283 -2.94425,-7.94631 -1.04519,-2.17885 -2.36024,-4.18474 -3.85618,-6.08493 -1.8502,-2.37118 -3.75856,-4.696 -5.66313,-7.02362 -2.324408,-2.66357 -4.651501,-5.33256 -7.274828,-7.71138 -2.214327,-1.88056 -4.702887,-3.39083 -7.277375,-4.73046 -3.262226,-1.61816 -6.567644,-3.14436 -9.943468,-4.51271 -4.258569,-1.67235 -8.599363,-3.10789 -12.951441,-4.51637 -4.515483,-1.47857 -9.035894,-2.94332 -13.586746,-4.3101 -3.989223,-1.19926 -8.093511,-2.21024 -11.815548,-4.12174 -2.350042,-1.38545 -4.344326,-3.13057 -6.180923,-5.1492 -1.494883,-1.56662 -2.971721,-3.15414 -4.398629,-4.78309 -1.168416,-1.44409 -2.184642,-2.98035 -3.155687,-4.5623 -0.886059,-1.4441 -1.806252,-2.86014 -2.822456,-4.21735 -1.01458,-1.54479 -1.934021,-3.12359 -2.69279,-4.81468 -0.877853,-1.56738 -1.690792,-3.17019 -2.620153,-4.70815 -0.9576,-1.69455 -1.91161,-3.38805 -2.84753,-5.09511 -0.979074,-1.52916 -2.055848,-3.03278 -2.699385,-4.74103 -0.476759,-1.55579 -0.886158,-3.12678 -1.364542,-4.68285 -0.292913,-1.78745 -0.293911,-3.56866 -0.253675,-5.37896 -0.0052,-2.11477 0.02119,-4.22978 0.09618,-6.343332 0.135443,-2.568704 0.346876,-5.129141 0.847913,-7.657044 0.450661,-2.524718 0.711698,-5.07833 1.064636,-7.61701 0.41401,-2.128102 1.065992,-4.131299 2.416201,-5.868027 1.03642,-1.706692 2.050028,-3.423603 3.234229,-5.035566 0.178058,-0.28334 0.357476,-0.565827 0.534174,-0.850019 0.171437,-0.275727 0.239427,-0.650581 0.510216,-0.829717 5.26178,-3.480856 7.76476,-5.808329 12.81088,-7.026111 3.043293,-0.934561 6.066499,-1.954276 9.003582,-3.185747 2.664161,-1.072293 5.227609,-2.34087 7.875834,-3.432713 2.481569,-0.716629 5.022913,-1.167735 7.594801,-1.416872 4.116292,-0.276485 8.240527,-0.177247 12.36259,-0.315159 4.320585,-0.140959 8.634693,-0.434451 12.956609,-0.509537 4.884713,0.130633 9.762807,0.399566 14.643994,0.619702 5.995817,0.161573 11.994217,0.04372 17.991637,0.0533 4.26409,-0.0078 8.52862,0.0058 12.79228,-0.06298 0,0 -9.07335,6.592173 -9.07335,6.592173 z"
       inkscape:connector-curvature="0" />
    <path
       style="fill:#ff8080;stroke-width:0.26458332"
       id="path3869"
       d="m 77.117145,80.966309 c 0.964155,2.067142 2.245535,3.951634 3.377126,5.92265 0.438394,0.941875 1.185738,1.458603 1.935975,2.08375 0.397928,0.383921 0.835745,0.687843 1.238848,1.06784 0,0 -9.57058,5.936567 -9.57058,5.936567 v 0 c -0.401029,-0.338889 -0.816171,-0.65873 -1.217136,-0.997625 -0.906182,-0.669694 -1.574459,-1.503322 -2.124961,-2.48866 -1.067509,-1.983303 -2.262341,-3.901347 -3.338362,-5.879393 0,0 9.69909,-5.645129 9.69909,-5.645129 z"
       inkscape:connector-curvature="0" />
    <path
       style="fill:#ff8080;stroke-width:0.26458332"
       id="path3871"
       d="m 143.3302,5.1659609 c 0.13815,4.153 0.39726,8.3009761 0.53648,12.4546871 0.12843,3.859693 0.15422,7.721669 0.176,11.583121 0.14485,2.433881 -0.2329,4.929245 0.23265,7.337356 0.033,0.08096 0.0944,0.330179 0.0989,0.242879 0.18191,-3.573674 -6.50901,2.982108 -9.68305,4.634283 -0.17625,0.09174 0.34651,-0.20216 0.48962,-0.340011 0.32081,-0.309035 1.13042,-1.387557 1.35904,-1.683334 2.53206,-3.323947 4.99488,-6.699872 7.38652,-10.126073 2.00767,-2.978574 4.10491,-5.893102 6.41888,-8.641474 1.4175,-1.647504 2.92705,-3.210974 4.5298,-4.677987 4.3778,-4.713753 0.99203,-1.816722 12.3323,-7.0222021 0.74446,1.8538831 0.42499,3.9994201 0.28918,5.9450491 -0.43484,3.674389 -1.23182,7.298451 -2.41215,10.803584 -1.40911,3.548456 -2.73416,7.130846 -4.17928,10.664827 -0.84321,2.16604 -1.89816,4.244557 -2.66289,6.441538 -1.12949,3.481157 -0.32787,1.095645 -9.91267,4.202967 -0.38698,0.125455 0.36516,-0.727319 0.56206,-1.083302 1.16185,-2.100549 2.51905,-4.004808 3.9429,-5.934747 4.55399,-6.011519 9.90459,-11.360034 15.1774,-16.732378 4.29157,-4.398788 8.74816,-8.636587 12.90446,-13.165353 0,0 10.20565,-4.2765755 10.20565,-4.2765755 v 0 c -4.23345,4.5813425 -8.79057,8.8442815 -13.14859,13.3056905 -5.22957,5.312346 -10.55616,10.587045 -15.08,16.528994 -1.35373,1.805541 -1.77383,2.280116 -2.92219,4.110776 -0.31792,0.506801 -0.61844,1.024929 -0.90059,1.552479 -0.18543,0.346695 -0.16198,0.868519 -0.50085,1.067875 -10.76665,6.333955 -11.23504,9.320416 -10.52094,5.238847 0.6412,-2.309965 1.98223,-4.378121 2.79654,-6.62487 1.50158,-3.487856 2.72878,-7.083583 4.17361,-10.595274 1.27827,-3.388084 2.0809,-6.929745 2.52687,-10.523297 0.12156,-1.689585 0.21394,-3.424183 -0.002,-5.108321 15.80813,-8.7285741 10.722,-7.2022622 7.70411,-3.059127 -1.55339,1.517597 -3.22819,2.91744 -4.62644,4.596293 -2.40212,2.711176 -4.59007,5.596303 -6.61705,8.598875 -2.34444,3.400204 -4.73461,6.77075 -7.20625,10.079833 -0.40721,0.585319 -0.85992,1.138782 -1.25337,1.733431 -0.12966,0.195958 -0.13335,0.50161 -0.33674,0.619265 -3.39278,1.962629 -9.58128,8.220787 -10.85738,4.514786 -0.44558,-2.503312 -0.10625,-5.055354 -0.19622,-7.583609 0.002,-3.861207 -0.008,-7.722788 -0.1043,-11.583024 -0.12765,-4.141992 -0.30507,-8.284059 -0.70142,-12.410479 0,0 9.98183,-5.0859981 9.98183,-5.0859981 z"
       inkscape:connector-curvature="0" />
    <path
       style="fill:#ff8080;stroke-width:0.26458332"
       id="path3873"
       d="m 191.28885,22.535809 c -2.19125,1.839527 -4.29689,3.777405 -6.37696,5.740762 -1.50199,1.313463 -2.96931,2.661219 -4.23749,4.204726 -1.16383,1.542944 -2.48115,2.956626 -3.74878,4.411943 -1.14797,1.242179 -1.93235,2.643902 -2.33843,4.277244 -0.20921,1.377947 -0.44504,2.827729 -0.0469,4.187102 0.65307,1.106271 1.84285,1.120291 2.92256,0.701609 3.24647,-2.116719 8.06049,-4.416411 -7.46514,4.182515 -0.25859,0.143222 0.47311,-0.355555 0.69463,-0.551296 0.46286,-0.409014 0.87745,-0.883539 1.29455,-1.336673 1.15827,-1.367472 2.18407,-2.835142 3.03468,-4.411324 0.88631,-1.665372 1.88236,-3.260714 2.92782,-4.829439 1.19642,-1.731341 2.59091,-3.308501 3.81119,-5.022495 0.76109,-1.180825 1.70357,-2.23088 2.44043,-3.425677 3.62457,-5.289802 -5.49083,0.730752 11.18621,-6.315741 -0.40275,1.902587 -1.74752,3.545477 -2.71396,5.21817 -1.43929,2.70188 -2.74945,5.472538 -3.92288,8.299511 -1.53817,3.784218 -2.72901,7.68886 -3.68687,11.656202 -0.48435,2.317835 -0.93846,4.692113 -0.83325,7.070545 0.0636,1.387269 0.59928,2.186882 1.91413,2.569147 0.91885,0.225504 1.75257,0.209129 2.61174,-0.21295 0.23843,-0.117129 0.92072,-0.530397 0.68971,-0.399241 -2.96093,1.681099 -5.91966,3.366053 -8.87949,5.049081 1.61424,-1.024165 3.14087,-2.178629 4.6034,-3.40796 1.55498,-1.338562 2.97162,-2.8242 4.53447,-4.15321 0.9557,-0.744995 0.48634,-0.389699 1.40641,-1.06808 0,0 10.42144,-4.166778 10.42144,-4.166778 v 0 c -0.89922,0.738926 -0.42182,0.388991 -1.43665,1.04371 -1.59814,1.291347 -3.06198,2.71099 -4.54628,4.131784 -1.43922,1.284562 -2.95916,2.450071 -4.51459,3.586829 -3.46469,1.983168 -6.90108,4.016632 -10.39408,5.949503 -1.17133,0.648163 -2.6722,0.294931 -3.84786,-0.09966 -1.50305,-0.76417 -2.39749,-1.936822 -2.52766,-3.662797 -0.20614,-2.489919 0.30558,-5.001064 0.79776,-7.431058 0.97903,-4.002307 2.13486,-7.957793 3.63019,-11.80052 1.09235,-2.879735 2.41293,-5.658889 3.79737,-8.409424 0.8783,-1.58723 1.72608,-3.209522 2.82896,-4.655677 3.42577,-1.688806 6.87817,-3.324617 10.2773,-5.066418 0.0657,-0.03369 -0.13297,-0.131868 -0.19868,-0.09812 -0.098,0.05032 -0.12172,0.184815 -0.16627,0.285547 -0.23571,0.53301 -0.3396,1.126052 -0.7055,1.598819 -0.77537,0.970629 0.0567,-0.133743 -0.65626,1.041143 -0.51824,0.853953 -1.31341,1.529479 -1.83941,2.383205 -1.13137,1.788951 -2.54956,3.34962 -3.82255,5.035089 -1.05807,1.52622 -2.0509,3.087984 -2.94979,4.712007 -0.87253,1.630032 -1.78642,3.201244 -2.94077,4.657357 -0.46513,0.539314 -1.30969,1.758802 -1.89086,2.119488 -2.2932,1.423217 -7.73267,5.575879 -11.93583,6.705748 -1.62657,0.03803 -3.01864,-0.560375 -3.80388,-2.057641 -0.52962,-1.534422 -0.40835,-3.112397 -0.21035,-4.707112 0.30195,-1.781821 0.89675,-3.424044 2.13781,-4.784715 1.18497,-1.515758 2.60294,-2.835555 3.74706,-4.388363 1.24082,-1.617887 2.6071,-3.129116 4.23446,-4.375316 2.06187,-1.959486 4.15424,-3.88629 6.28999,-5.765237 0,0 10.40318,-4.215862 10.40318,-4.215862 z"
       inkscape:connector-curvature="0" />
  </g>
</svg>
